<svg width="87" height="70" viewBox="0 0 87 70" fill="none" xmlns="http://www.w3.org/2000/svg">
<path fill-rule="evenodd" clip-rule="evenodd" d="M41.8449 49.2762L2.27224 27.2802C1.4486 26.8224 1.15173 25.783 1.60915 24.9587C1.76389 24.6798 1.99357 24.4499 2.27217 24.2951L41.8448 2.29674C42.8751 1.724 44.1277 1.724 45.158 2.29674L84.7306 24.2951C85.5542 24.7529 85.8511 25.7923 85.3936 26.6166C85.2388 26.8954 85.0092 27.1253 84.7305 27.2802L45.1579 49.2762C44.1277 49.8488 42.8751 49.8488 41.8449 49.2762Z" stroke="#65AF54" stroke-linejoin="round"/>
<path d="M16.6528 35.4668V52.0542C16.6528 61.2035 28.6724 68.6235 43.5025 68.6235C58.3275 68.6235 70.3471 61.2035 70.3471 52.0542V35.4668" stroke="#65AF54" stroke-linejoin="round"/>
<path d="M81.0295 29.8779V52.073" stroke="#65AF54" stroke-linecap="round" stroke-linejoin="round"/>
</svg>
