<svg width="66" height="74" viewBox="0 0 66 74" fill="none" xmlns="http://www.w3.org/2000/svg">
<path d="M11.2239 38.0646L13.4098 41.3324C13.8111 41.9323 14.5635 42.0086 15.0756 41.4956L21.438 35.1572" stroke="#65AF54" stroke-linecap="round" stroke-linejoin="round"/>
<path d="M11.2239 19.8878L13.4098 23.1557C13.8111 23.7582 14.5635 23.8319 15.0756 23.3214L21.438 16.9805" stroke="#65AF54" stroke-linecap="round" stroke-linejoin="round"/>
<path d="M52.0248 20.6152H28.6819" stroke="#65AF54" stroke-linecap="round" stroke-linejoin="round"/>
<path d="M52.0248 38.0645H28.6819" stroke="#65AF54" stroke-linecap="round" stroke-linejoin="round"/>
<path d="M11.502 58.8752L18.7963 51.6055" stroke="#65AF54" stroke-linecap="round" stroke-linejoin="round"/>
<path d="M18.7042 58.8752L11.4099 51.6055" stroke="#65AF54" stroke-linecap="round" stroke-linejoin="round"/>
<path d="M52.0248 55.2432H28.6819" stroke="#65AF54" stroke-linecap="round" stroke-linejoin="round"/>
<path fill-rule="evenodd" clip-rule="evenodd" d="M63.3598 73.0361H2.63982C1.91118 73.0361 1.31982 72.4467 1.31982 71.7205V3.31165C1.31982 2.58546 1.91118 1.99609 2.63982 1.99609H63.3598C64.0885 1.99609 64.6798 2.58546 64.6798 3.31165V71.7205C64.6798 72.4467 64.0885 73.0361 63.3598 73.0361Z" stroke="#65AF54" stroke-linecap="round" stroke-linejoin="round"/>
</svg>
