<svg width="66" height="74" viewBox="0 0 66 74" fill="none" xmlns="http://www.w3.org/2000/svg">
<path fill-rule="evenodd" clip-rule="evenodd" d="M62.9605 72.2788H3.03945C2.3204 72.2788 1.73682 71.6935 1.73682 70.9722V3.02734C1.73682 2.30607 2.3204 1.7207 3.03945 1.7207H62.9605C63.6796 1.7207 64.2631 2.30607 64.2631 3.02734V70.9722C64.2631 71.6935 63.6796 72.2788 62.9605 72.2788Z" stroke="#65AF54" stroke-linecap="round" stroke-linejoin="round"/>
<path d="M46.8947 18.9297H19.1052" stroke="#65AF54" stroke-linecap="round" stroke-linejoin="round"/>
<path d="M46.8947 36.1387H19.1052" stroke="#65AF54" stroke-linecap="round" stroke-linejoin="round"/>
<path d="M25.2807 53.3486H19.1052" stroke="#65AF54" stroke-linecap="round" stroke-linejoin="round"/>
<path d="M46.0263 65.3955C52.2613 65.3955 57.3158 60.3874 57.3158 54.2095C57.3158 48.0316 52.2613 43.0234 46.0263 43.0234C39.7913 43.0234 34.7368 48.0316 34.7368 54.2095C34.7368 60.3874 39.7913 65.3955 46.0263 65.3955Z" stroke="#65AF54"/>
<path d="M51.5406 53.2615C50.7433 54.1644 49.3233 55.6616 49.3233 55.6616C49.3233 55.6616 49.5511 57.3017 49.6878 58.4228C49.7486 58.9946 49.3006 59.2429 48.7994 59.0171C47.8427 58.5732 46.3848 57.8811 46.0582 57.7231C45.7241 57.8735 44.2587 58.5582 43.2943 59.0021C42.7856 59.2203 42.3376 58.9795 42.3907 58.4077C42.5198 57.2867 42.7552 55.654 42.7552 55.654C42.7552 55.654 41.3201 54.1644 40.5152 53.2615C40.2267 52.9305 40.4165 52.464 40.9784 52.3813C42.1326 52.1781 43.917 51.8546 43.917 51.8546C43.917 51.8546 44.8965 50.1843 45.5115 49.1611C45.8532 48.5367 46.0886 48.6119 46.1266 48.6269C46.2329 48.657 46.4 48.7849 46.6126 49.1611C47.22 50.1843 48.1844 51.8546 48.1844 51.8546C48.1844 51.8546 49.946 52.1781 51.085 52.3813C51.6393 52.464 51.8215 52.938 51.5406 53.2615H51.5406Z" stroke="#65AF54" stroke-width="0.8"/>
</svg>
