<svg width="58" height="48" viewBox="0 0 58 48" fill="none" xmlns="http://www.w3.org/2000/svg">
<path d="M38.4166 28.103C38.4166 33.2446 34.2339 37.4273 29.0923 37.4273C23.9507 37.4273 19.7697 33.2446 19.7697 28.103C19.7697 22.9614 23.9507 18.7788 29.0923 18.7788C34.2339 18.7788 38.4166 22.963 38.4166 28.103ZM58.0001 14.863V41.3462C58.0001 44.8768 55.1376 47.7393 51.607 47.7393H6.57762C3.04706 47.7393 0.18457 44.8768 0.18457 41.3462V14.863C0.18457 11.3325 3.04706 8.46997 6.57762 8.46997H14.4411V6.25798C14.4411 3.16854 16.9439 0.664062 20.035 0.664062H38.1497C41.2407 0.664062 43.7436 3.16854 43.7436 6.25798V8.46837H51.607C55.1376 8.46997 58.0001 11.3325 58.0001 14.863ZM43.2114 28.103C43.2114 20.3179 36.8775 13.984 29.0923 13.984C21.3088 13.984 14.9749 20.3179 14.9749 28.103C14.9749 35.8881 21.3088 42.2221 29.0923 42.2221C36.8775 42.2221 43.2114 35.8881 43.2114 28.103Z" fill="#0E9106"/>
</svg>
